<svg width="25" height="24" viewBox="0 0 25 24" fill="none" xmlns="http://www.w3.org/2000/svg">
<path d="M9.97763 6.79289L11.6241 5.14645C11.8193 4.95118 12.1359 4.95118 12.3312 5.14645L13.9776 6.79289M6.81096 9.95956L5.16451 11.606C4.96925 11.8013 4.96925 12.1179 5.16451 12.3131L6.81096 13.9596M17.1443 9.95956L18.7907 11.606C18.986 11.8013 18.986 12.1179 18.7907 12.3131L17.1443 13.9596M13.9776 17.1262L12.3312 18.7727C12.1359 18.9679 11.8193 18.9679 11.6241 18.7727L9.97763 17.1262M11.9776 5.62623V11.9596M11.9776 11.9596V18.2929M11.9776 11.9596H5.64429M11.9776 11.9596H18.311" stroke="white" stroke-opacity="0.2" stroke-width="2" stroke-linecap="round" stroke-linejoin="round"/>
</svg>
